<svg width="132" height="32" viewBox="0 0 132 32" fill="#f5f6f9" xmlns="http://www.w3.org/2000/svg">
<path d="M20.6006 21.1575C20.6014 21.323 20.5559 21.4855 20.4692 21.6266C20.3825 21.7678 20.258 21.8821 20.1097 21.9568C17.4436 23.2455 14.5124 23.8965 11.5494 23.8583C4.81681 23.8583 0 19.3034 0 12.504C0 5.51837 4.81681 0.963501 11.5494 0.963501C14.5017 0.963501 17.1903 1.51826 19.3515 3.0548C19.4503 3.13488 19.5299 3.23589 19.5846 3.35047C19.6393 3.46506 19.6676 3.59034 19.6676 3.71722C19.6676 3.8441 19.6393 3.96939 19.5846 4.08398C19.5299 4.19856 19.4503 4.29957 19.3515 4.37965L17.5823 5.79575C17.2636 6.11692 16.52 6.06948 16.161 5.79575C14.7948 4.75922 13.4724 4.47089 11.5713 4.47089C7.06221 4.47089 4.0659 7.91624 4.0659 12.2558C4.0659 16.9055 7.06221 20.3509 11.5713 20.3509C13.1571 20.3927 14.7334 20.0953 16.194 19.4786C16.3491 19.4062 16.4801 19.291 16.5716 19.1468C16.6631 19.0026 16.7113 18.8353 16.7105 18.6647V14.9712C16.7095 14.7327 16.6138 14.5044 16.4442 14.3361C16.2746 14.1678 16.0451 14.0733 15.8057 14.0733H11.9779C11.3662 14.0733 11.1904 13.8142 11.4651 13.5806C12.1684 12.9821 13.5567 11.7083 14.5786 10.8287C14.9227 10.6211 15.3246 10.529 15.7252 10.5659H19.6995C19.9359 10.5659 20.1629 10.6585 20.3315 10.8237C20.5001 10.989 20.5967 11.2136 20.6006 11.4492V21.1575Z" fill="#f5f6f9"/>
<path d="M30.5292 8.16443C35.0054 8.16443 38.5878 11.274 38.5878 15.9201C38.5878 20.5662 35.0054 23.6758 30.5292 23.6758C26.0531 23.6758 22.4707 20.5662 22.4707 15.9201C22.4707 11.274 26.0494 8.16443 30.5292 8.16443ZM30.5292 20.3509C33.2472 20.3509 34.8845 18.2267 34.8845 15.9201C34.8845 13.6135 33.2472 11.4893 30.5292 11.4893C27.8113 11.4893 26.174 13.6098 26.174 15.9201C26.174 18.2304 27.8113 20.3509 30.5292 20.3509Z" fill="#f5f6f9"/>
<path d="M66.6953 8.16443C71.1714 8.16443 74.7538 11.274 74.7538 15.9201C74.7538 20.5662 71.1714 23.6758 66.6953 23.6758C62.2191 23.6758 58.6367 20.5662 58.6367 15.9201C58.6367 11.274 62.2154 8.16443 66.6953 8.16443ZM66.6953 20.3509C69.4132 20.3509 71.0505 18.2267 71.0505 15.9201C71.0505 13.6135 69.4132 11.4893 66.6953 11.4893C63.9773 11.4893 62.34 13.6098 62.34 15.9201C62.34 18.2304 63.9773 20.3509 66.6953 20.3509Z" fill="#f5f6f9"/>
<path d="M117.45 2.62414L120.237 0.5C120.298 0.499998 120.357 0.511918 120.413 0.535073C120.469 0.558228 120.52 0.59216 120.562 0.634911C120.605 0.677662 120.638 0.728386 120.661 0.784159C120.684 0.839931 120.695 0.899649 120.695 0.959866V13.9493C120.695 14.0415 120.723 14.1316 120.775 14.2078C120.827 14.284 120.901 14.3429 120.987 14.3767C121.073 14.4106 121.168 14.4178 121.258 14.3976C121.348 14.3773 121.43 14.3305 121.493 14.2631L126.274 9.15352C126.317 9.10783 126.369 9.07134 126.427 9.04626C126.485 9.02117 126.548 9.008 126.611 9.00753H130.098C130.187 9.0083 130.275 9.03503 130.349 9.08448C130.424 9.13393 130.483 9.20394 130.518 9.28599C130.553 9.36803 130.564 9.45855 130.549 9.5465C130.533 9.63445 130.492 9.71602 130.431 9.78127L125.087 15.4055C125.01 15.4873 124.965 15.5941 124.961 15.7062C124.957 15.8182 124.994 15.928 125.065 16.015L130.926 23.0116C130.982 23.0795 131.017 23.1621 131.027 23.2494C131.038 23.3368 131.023 23.4253 130.984 23.5045C130.946 23.5836 130.885 23.6501 130.81 23.696C130.735 23.7419 130.648 23.7653 130.559 23.7634H126.86C126.789 23.7645 126.719 23.7493 126.656 23.7189C126.592 23.6885 126.537 23.6437 126.493 23.5882L120.757 16.2267H120.695V23.3072C120.695 23.4282 120.647 23.5442 120.561 23.6298C120.475 23.7153 120.359 23.7634 120.237 23.7634H117.45C117.328 23.7634 117.212 23.7153 117.126 23.6298C117.04 23.5442 116.992 23.4282 116.992 23.3072V3.41979C117.052 3.11131 117.213 2.83141 117.45 2.62414Z" fill="#f5f6f9"/>
<path d="M80.0341 23.3072C80.0341 23.3674 80.0221 23.427 79.9989 23.4826C79.9756 23.5382 79.9416 23.5887 79.8987 23.6311C79.8558 23.6735 79.8049 23.707 79.7489 23.7297C79.6929 23.7524 79.633 23.7639 79.5725 23.7634H76.7887C76.6669 23.7634 76.5501 23.7155 76.4636 23.63C76.3772 23.5446 76.3281 23.4285 76.3271 23.3072V3.4198C76.3858 3.10902 76.5485 2.82725 76.7887 2.62051L79.5725 0.500015C79.6333 0.499529 79.6935 0.511091 79.7497 0.53403C79.806 0.556968 79.857 0.590823 79.9 0.633623C79.9429 0.676422 79.9769 0.727311 79.9999 0.783324C80.023 0.839337 80.0346 0.899355 80.0341 0.959881V23.3072Z" fill="#f5f6f9"/>
<path d="M56.6034 8.23738H53.0101C52.9382 8.23738 52.8692 8.26583 52.8184 8.31648C52.7676 8.36713 52.739 8.43583 52.739 8.50746V9.17536C51.4551 8.49939 50.0226 8.15198 48.5705 8.16438C44.0394 8.16438 40.4131 11.3105 40.4131 16.0113C40.4131 20.7122 44.0394 23.8582 48.5705 23.8582C50.1556 23.8734 51.7147 23.4569 53.0797 22.6538C53.0636 23.4656 52.9914 24.2753 52.8635 25.0772C52.5852 26.7014 51.1126 27.5116 50.4863 27.778C49.7477 28.0633 48.9594 28.1986 48.1676 28.1759C47.287 28.1664 46.421 27.9501 45.6401 27.5445C45.1905 27.3355 44.7745 27.0612 44.4057 26.7306C44.31 26.6466 44.188 26.5981 44.0605 26.5935C43.933 26.5888 43.8078 26.6282 43.7061 26.705L41.2409 28.581C41.1709 28.6345 41.1147 28.704 41.0772 28.7835C41.0396 28.8631 41.0216 28.9505 41.0249 29.0384C41.0281 29.1263 41.0524 29.2121 41.0957 29.2887C41.139 29.3653 41.2001 29.4305 41.2739 29.4788C41.5899 29.6916 41.9176 29.8866 42.2556 30.0628C42.876 30.383 43.5231 30.6492 44.1896 30.8584C44.8575 31.0702 45.5409 31.2301 46.2336 31.3365C46.8842 31.4396 47.5418 31.4933 48.2006 31.4971C49.5175 31.5276 50.8285 31.3109 52.065 30.8584C53.0937 30.4752 54.0191 29.8593 54.7683 29.0591C55.5041 28.2465 56.0451 27.2781 56.3507 26.2269C56.6387 25.2486 56.8035 24.2384 56.8415 23.2195L56.8708 8.51476C56.8718 8.47899 56.8656 8.44338 56.8527 8.41C56.8397 8.37663 56.8202 8.34615 56.7954 8.32034C56.7705 8.29453 56.7407 8.27391 56.7077 8.25967C56.6748 8.24542 56.6393 8.23785 56.6034 8.23738ZM48.5705 20.4968C45.8196 20.4968 44.175 18.3471 44.175 16.0113C44.175 13.6755 45.8306 11.5258 48.5705 11.5258H48.6438C48.75 11.5258 48.8562 11.5258 48.9588 11.5258C49.0817 11.5333 49.204 11.5479 49.3251 11.5696L49.5815 11.6207C50.5738 11.8327 51.4528 12.4019 52.0504 13.2193C52.5308 13.8497 52.8373 14.5943 52.9395 15.3793C53.0416 16.1643 52.9359 16.9622 52.6328 17.6938C52.3358 18.5262 51.7839 19.2447 51.055 19.7476C50.3261 20.2506 49.457 20.5127 48.5705 20.4968Z" fill="#f5f6f9"/>
<path d="M89.5927 8.16443C94.0689 8.16443 97.6513 11.274 97.6513 15.9201C97.6513 20.5662 94.0652 23.6758 89.5927 23.6758C85.1202 23.6758 81.5342 20.5662 81.5342 15.9201C81.5342 11.274 85.1129 8.16443 89.5927 8.16443ZM89.5927 20.3509C92.3107 20.3509 93.948 18.2267 93.948 15.9201C93.948 13.6135 92.307 11.4893 89.5927 11.4893C86.8785 11.4893 85.2374 13.6098 85.2374 15.9201C85.2374 18.2304 86.8748 20.3509 89.5927 20.3509Z" fill="#f5f6f9"/>
<path d="M107.508 8.16443C111.988 8.16443 115.566 11.274 115.566 15.9201C115.566 20.5662 111.984 23.6758 107.508 23.6758C103.032 23.6758 99.4492 20.5662 99.4492 15.9201C99.4492 11.274 103.028 8.16443 107.508 8.16443ZM107.508 20.3509C110.226 20.3509 111.863 18.2267 111.863 15.9201C111.863 13.6135 110.226 11.4893 107.508 11.4893C104.79 11.4893 103.152 13.6098 103.152 15.9201C103.152 18.2304 104.79 20.3509 107.508 20.3509Z" fill="#f5f6f9"/>
</svg>
