<?xml version="1.0" encoding="utf-8"?>
<!-- Generator: Adobe Illustrator 25.2.1, SVG Export Plug-In . SVG Version: 6.00 Build 0)  -->
<svg version="1.1" id="Layer_1" xmlns="http://www.w3.org/2000/svg" xmlns:xlink="http://www.w3.org/1999/xlink" x="0px" y="0px"
	 viewBox="0 0 280 64" style="enable-background:new 0 0 280 64;" xml:space="preserve">
<style type="text/css">
	.st0{fill:#040000;}
	.st1{fill:#008F43;}
	.st2{clip-path:url(#SVGID_2_);}
	.st3{clip-path:url(#SVGID_4_);fill:#6FB92C;}
	.st4{clip-path:url(#SVGID_4_);fill:#6EB92C;}
	.st5{clip-path:url(#SVGID_4_);fill:#6DB82C;}
	.st6{clip-path:url(#SVGID_4_);fill:#6CB82D;}
	.st7{clip-path:url(#SVGID_4_);fill:#6BB72D;}
	.st8{clip-path:url(#SVGID_4_);fill:#6AB72D;}
	.st9{clip-path:url(#SVGID_4_);fill:#69B72D;}
	.st10{clip-path:url(#SVGID_4_);fill:#68B62D;}
	.st11{clip-path:url(#SVGID_4_);fill:#67B62E;}
	.st12{clip-path:url(#SVGID_4_);fill:#66B62E;}
	.st13{clip-path:url(#SVGID_4_);fill:#65B52E;}
	.st14{clip-path:url(#SVGID_4_);fill:#64B52E;}
	.st15{clip-path:url(#SVGID_4_);fill:#63B42E;}
	.st16{clip-path:url(#SVGID_4_);fill:#62B42F;}
	.st17{clip-path:url(#SVGID_4_);fill:#61B42F;}
	.st18{clip-path:url(#SVGID_4_);fill:#60B32F;}
	.st19{clip-path:url(#SVGID_4_);fill:#5FB32F;}
	.st20{clip-path:url(#SVGID_4_);fill:#5EB22F;}
	.st21{clip-path:url(#SVGID_4_);fill:#5DB230;}
	.st22{clip-path:url(#SVGID_4_);fill:#5CB230;}
	.st23{clip-path:url(#SVGID_4_);fill:#5BB130;}
	.st24{clip-path:url(#SVGID_4_);fill:#5AB130;}
	.st25{clip-path:url(#SVGID_4_);fill:#59B131;}
	.st26{clip-path:url(#SVGID_4_);fill:#57B031;}
	.st27{clip-path:url(#SVGID_4_);fill:#56B031;}
	.st28{clip-path:url(#SVGID_4_);fill:#55AF31;}
	.st29{clip-path:url(#SVGID_4_);fill:#54AF31;}
	.st30{clip-path:url(#SVGID_4_);fill:#53AF32;}
	.st31{clip-path:url(#SVGID_4_);fill:#52AE32;}
	.st32{clip-path:url(#SVGID_4_);fill:#51AE32;}
	.st33{clip-path:url(#SVGID_4_);fill:#50AD32;}
	.st34{clip-path:url(#SVGID_4_);fill:#4FAD32;}
	.st35{clip-path:url(#SVGID_4_);fill:#4EAD33;}
	.st36{clip-path:url(#SVGID_4_);fill:#4DAC33;}
	.st37{clip-path:url(#SVGID_4_);fill:#4CAC33;}
	.st38{clip-path:url(#SVGID_4_);fill:#4BAB33;}
	.st39{clip-path:url(#SVGID_4_);fill:#4AAB33;}
	.st40{clip-path:url(#SVGID_4_);fill:#49AB34;}
	.st41{clip-path:url(#SVGID_4_);fill:#48AA34;}
	.st42{clip-path:url(#SVGID_4_);fill:#47AA34;}
	.st43{clip-path:url(#SVGID_4_);fill:#46AA34;}
	.st44{clip-path:url(#SVGID_4_);fill:#45A934;}
	.st45{clip-path:url(#SVGID_4_);fill:#44A935;}
	.st46{clip-path:url(#SVGID_4_);fill:#43A835;}
	.st47{clip-path:url(#SVGID_4_);fill:#42A835;}
	.st48{clip-path:url(#SVGID_4_);fill:#41A835;}
	.st49{clip-path:url(#SVGID_4_);fill:#40A735;}
	.st50{clip-path:url(#SVGID_4_);fill:#3FA736;}
	.st51{clip-path:url(#SVGID_4_);fill:#3EA636;}
	.st52{clip-path:url(#SVGID_4_);fill:#3DA636;}
	.st53{clip-path:url(#SVGID_4_);fill:#3CA636;}
	.st54{clip-path:url(#SVGID_4_);fill:#3BA536;}
	.st55{clip-path:url(#SVGID_4_);fill:#3AA537;}
	.st56{clip-path:url(#SVGID_4_);fill:#39A537;}
	.st57{clip-path:url(#SVGID_4_);fill:#38A437;}
	.st58{clip-path:url(#SVGID_4_);fill:#37A437;}
	.st59{clip-path:url(#SVGID_4_);fill:#36A338;}
	.st60{clip-path:url(#SVGID_4_);fill:#35A338;}
	.st61{clip-path:url(#SVGID_4_);fill:#34A338;}
	.st62{clip-path:url(#SVGID_4_);fill:#33A238;}
	.st63{clip-path:url(#SVGID_4_);fill:#32A238;}
	.st64{clip-path:url(#SVGID_4_);fill:#31A139;}
	.st65{clip-path:url(#SVGID_4_);fill:#30A139;}
	.st66{clip-path:url(#SVGID_4_);fill:#2FA139;}
	.st67{clip-path:url(#SVGID_4_);fill:#2EA039;}
	.st68{clip-path:url(#SVGID_4_);fill:#2DA039;}
	.st69{clip-path:url(#SVGID_4_);fill:#2CA03A;}
	.st70{clip-path:url(#SVGID_4_);fill:#2B9F3A;}
	.st71{clip-path:url(#SVGID_4_);fill:#299F3A;}
	.st72{clip-path:url(#SVGID_4_);fill:#289E3A;}
	.st73{clip-path:url(#SVGID_4_);fill:#279E3B;}
	.st74{clip-path:url(#SVGID_4_);fill:#269E3B;}
	.st75{clip-path:url(#SVGID_4_);fill:#259D3B;}
	.st76{clip-path:url(#SVGID_4_);fill:#249D3B;}
	.st77{clip-path:url(#SVGID_4_);fill:#239D3B;}
	.st78{clip-path:url(#SVGID_4_);fill:#229C3C;}
	.st79{clip-path:url(#SVGID_4_);fill:#219C3C;}
	.st80{clip-path:url(#SVGID_4_);fill:#209B3C;}
	.st81{clip-path:url(#SVGID_4_);fill:#1F9B3C;}
	.st82{clip-path:url(#SVGID_4_);fill:#1E9B3C;}
	.st83{clip-path:url(#SVGID_4_);fill:#1D9A3D;}
	.st84{clip-path:url(#SVGID_4_);fill:#1C9A3D;}
	.st85{clip-path:url(#SVGID_4_);fill:#1B993D;}
	.st86{clip-path:url(#SVGID_4_);fill:#1A993D;}
	.st87{clip-path:url(#SVGID_4_);fill:#19993E;}
	.st88{clip-path:url(#SVGID_4_);fill:#18983E;}
	.st89{clip-path:url(#SVGID_4_);fill:#17983E;}
	.st90{clip-path:url(#SVGID_4_);fill:#16983E;}
	.st91{clip-path:url(#SVGID_4_);fill:#15973E;}
	.st92{clip-path:url(#SVGID_4_);fill:#14973F;}
	.st93{clip-path:url(#SVGID_4_);fill:#13963F;}
	.st94{clip-path:url(#SVGID_4_);fill:#12963F;}
	.st95{clip-path:url(#SVGID_4_);fill:#11963F;}
	.st96{clip-path:url(#SVGID_4_);fill:#10953F;}
	.st97{clip-path:url(#SVGID_4_);fill:#0F9540;}
	.st98{clip-path:url(#SVGID_4_);fill:#0E9440;}
	.st99{clip-path:url(#SVGID_4_);fill:#0D9440;}
	.st100{clip-path:url(#SVGID_4_);fill:#0C9440;}
	.st101{clip-path:url(#SVGID_4_);fill:#0B9341;}
	.st102{clip-path:url(#SVGID_4_);fill:#0A9341;}
	.st103{clip-path:url(#SVGID_4_);fill:#089241;}
	.st104{clip-path:url(#SVGID_4_);fill:#079241;}
	.st105{clip-path:url(#SVGID_4_);fill:#069142;}
	.st106{clip-path:url(#SVGID_4_);fill:#059142;}
	.st107{clip-path:url(#SVGID_4_);fill:#049142;}
	.st108{clip-path:url(#SVGID_4_);fill:#039042;}
	.st109{clip-path:url(#SVGID_4_);fill:#029043;}
	.st110{clip-path:url(#SVGID_4_);fill:#018F43;}
	.st111{clip-path:url(#SVGID_4_);fill:#008F43;}
	.st112{clip-path:url(#SVGID_6_);}
	.st113{clip-path:url(#SVGID_8_);fill:#44AF35;}
	.st114{clip-path:url(#SVGID_8_);fill:#43AF35;}
	.st115{clip-path:url(#SVGID_8_);fill:#42AE35;}
	.st116{clip-path:url(#SVGID_8_);fill:#41AE36;}
	.st117{clip-path:url(#SVGID_8_);fill:#40AD36;}
	.st118{clip-path:url(#SVGID_8_);fill:#3FAD36;}
	.st119{clip-path:url(#SVGID_8_);fill:#3EAC36;}
	.st120{clip-path:url(#SVGID_8_);fill:#3DAC37;}
	.st121{clip-path:url(#SVGID_8_);fill:#3CAB37;}
	.st122{clip-path:url(#SVGID_8_);fill:#3BAB37;}
	.st123{clip-path:url(#SVGID_8_);fill:#3AAA37;}
	.st124{clip-path:url(#SVGID_8_);fill:#39AA38;}
	.st125{clip-path:url(#SVGID_8_);fill:#37A938;}
	.st126{clip-path:url(#SVGID_8_);fill:#36A938;}
	.st127{clip-path:url(#SVGID_8_);fill:#35A838;}
	.st128{clip-path:url(#SVGID_8_);fill:#34A838;}
	.st129{clip-path:url(#SVGID_8_);fill:#33A739;}
	.st130{clip-path:url(#SVGID_8_);fill:#32A739;}
	.st131{clip-path:url(#SVGID_8_);fill:#31A639;}
	.st132{clip-path:url(#SVGID_8_);fill:#30A639;}
	.st133{clip-path:url(#SVGID_8_);fill:#2FA53A;}
	.st134{clip-path:url(#SVGID_8_);fill:#2EA53A;}
	.st135{clip-path:url(#SVGID_8_);fill:#2DA43A;}
	.st136{clip-path:url(#SVGID_8_);fill:#2CA43A;}
	.st137{clip-path:url(#SVGID_8_);fill:#2BA33A;}
	.st138{clip-path:url(#SVGID_8_);fill:#2AA33B;}
	.st139{clip-path:url(#SVGID_8_);fill:#29A23B;}
	.st140{clip-path:url(#SVGID_8_);fill:#28A23B;}
	.st141{clip-path:url(#SVGID_8_);fill:#27A13B;}
	.st142{clip-path:url(#SVGID_8_);fill:#26A13B;}
	.st143{clip-path:url(#SVGID_8_);fill:#25A03C;}
	.st144{clip-path:url(#SVGID_8_);fill:#24A03C;}
	.st145{clip-path:url(#SVGID_8_);fill:#239F3C;}
	.st146{clip-path:url(#SVGID_8_);fill:#229F3C;}
	.st147{clip-path:url(#SVGID_8_);fill:#219E3D;}
	.st148{clip-path:url(#SVGID_8_);fill:#1F9E3D;}
	.st149{clip-path:url(#SVGID_8_);fill:#1E9D3D;}
	.st150{clip-path:url(#SVGID_8_);fill:#1D9D3D;}
	.st151{clip-path:url(#SVGID_8_);fill:#1C9C3D;}
	.st152{clip-path:url(#SVGID_8_);fill:#1B9C3E;}
	.st153{clip-path:url(#SVGID_8_);fill:#1A9B3E;}
	.st154{clip-path:url(#SVGID_8_);fill:#199B3E;}
	.st155{clip-path:url(#SVGID_8_);fill:#189A3E;}
	.st156{clip-path:url(#SVGID_8_);fill:#179A3E;}
	.st157{clip-path:url(#SVGID_8_);fill:#16993F;}
	.st158{clip-path:url(#SVGID_8_);fill:#15993F;}
	.st159{clip-path:url(#SVGID_8_);fill:#14983F;}
	.st160{clip-path:url(#SVGID_8_);fill:#13983F;}
	.st161{clip-path:url(#SVGID_8_);fill:#12973F;}
	.st162{clip-path:url(#SVGID_8_);fill:#119740;}
	.st163{clip-path:url(#SVGID_8_);fill:#109640;}
	.st164{clip-path:url(#SVGID_8_);fill:#0F9640;}
	.st165{clip-path:url(#SVGID_8_);fill:#0E9540;}
	.st166{clip-path:url(#SVGID_8_);fill:#0D9541;}
	.st167{clip-path:url(#SVGID_8_);fill:#0B9441;}
	.st168{clip-path:url(#SVGID_8_);fill:#0A9441;}
	.st169{clip-path:url(#SVGID_8_);fill:#099341;}
	.st170{clip-path:url(#SVGID_8_);fill:#089341;}
	.st171{clip-path:url(#SVGID_8_);fill:#079242;}
	.st172{clip-path:url(#SVGID_8_);fill:#069242;}
	.st173{clip-path:url(#SVGID_8_);fill:#059142;}
	.st174{clip-path:url(#SVGID_8_);fill:#049142;}
	.st175{clip-path:url(#SVGID_8_);fill:#039043;}
	.st176{clip-path:url(#SVGID_8_);fill:#019043;}
	.st177{clip-path:url(#SVGID_8_);fill:#008F43;}
</style>
<path class="st0" d="M157.47,57.21l-2.53-6.85h-2.23l3.76,8.99c-0.53,1.4-1.33,2.67-2.36,3.76l1.95,0.87
	c1.01-1.3,1.8-2.75,2.34-4.31c0.98-2.46,2.49-6.9,3.29-9.31h-2.19C159,52.31,158.16,55.2,157.47,57.21z"/>
<path class="st0" d="M151.47,53.34c0-2.21-0.83-3.28-3.38-3.28c-1.22,0.01-2.43,0.27-3.54,0.76l0.43,1.66
	c0.88-0.48,1.87-0.74,2.88-0.76c1.55,0,1.73,0.65,1.73,1.63v0.65c-4.55,0.2-5.8,0.9-5.8,3.23c-0.1,1.57,1.1,2.92,2.67,3.02
	c0.15,0.01,0.3,0.01,0.45-0.01c1.2,0.04,2.33-0.59,2.93-1.63c0.07,0.57,0.28,1.11,0.61,1.58l1.68-0.3
	c-0.51-0.84-0.75-1.82-0.66-2.79L151.47,53.34z M149.59,56.83c-0.26,1.06-1.21,1.79-2.29,1.78c-0.66,0-1.65-0.25-1.65-1.43
	c0-1.28,0.91-1.53,3.94-1.7L149.59,56.83z"/>
<path class="st0" d="M125.03,53.34c0-2.21-0.83-3.28-3.37-3.28c-1.22,0.01-2.43,0.27-3.54,0.76l0.43,1.66
	c0.88-0.48,1.87-0.74,2.88-0.76c1.55,0,1.73,0.65,1.73,1.63v0.65c-4.56,0.2-5.8,0.9-5.8,3.23c-0.1,1.57,1.1,2.92,2.67,3.02
	c0.15,0.01,0.3,0.01,0.46-0.01c1.2,0.04,2.33-0.59,2.93-1.63c0.07,0.57,0.28,1.11,0.62,1.58l1.68-0.3
	c-0.51-0.84-0.75-1.82-0.67-2.79L125.03,53.34z M123.15,56.83c-0.26,1.05-1.21,1.79-2.29,1.78c-0.67,0-1.65-0.25-1.65-1.43
	c0-1.28,0.91-1.53,3.94-1.7V56.83z"/>
<path class="st0" d="M112.94,58.41c-2.81,0-4.12-1.76-4.12-4.59c0-2.98,1.15-5.02,4.07-5.02c0.9,0,1.79,0.17,2.63,0.48l0.33-1.85
	c-0.98-0.29-2-0.44-3.03-0.45c-4.91,0-6.19,3.31-6.19,6.8v0.02c0,3.43,1.38,6.45,6.22,6.45c1.04,0,2.08-0.15,3.08-0.45l-0.22-1.86
	C114.82,58.24,113.89,58.39,112.94,58.41z"/>
<path class="st0" d="M138.76,50.18c-1.11,0-2.17,0.43-2.98,1.2v-4.85l-2.01,0.3v13.2h2.01v-7.13c0.61-0.68,1.47-1.06,2.38-1.06
	c1.35,0,1.76,0.91,1.76,2.15v6.05h1.98v-6.55C141.9,51.74,141.24,50.18,138.76,50.18z"/>
<path class="st0" d="M130.07,47.79l-1.96,0.5v2.2h-1.53v1.56h1.53v5.77c0,1.78,1.06,2.38,2.71,2.29l0.91-0.05v-1.51h-0.56
	c-0.85,0-1.1-0.35-1.1-1.48v-5.02h2.01v-1.56h-2.01L130.07,47.79z"/>
<rect x="177.13" y="47.09" class="st0" width="2.08" height="1.83"/>
<polygon class="st0" points="170.25,47.26 168.22,47.26 168.22,60.02 175.49,60.02 175.49,58.24 170.25,58.24 "/>
<rect x="177.17" y="50.37" class="st0" width="2.01" height="9.66"/>
<path class="st0" d="M186.03,48.15c0.42,0.01,0.84,0.06,1.25,0.17l0.28-1.63c-0.58-0.14-1.18-0.21-1.78-0.2
	c-2.69,0-3.34,1.99-3.34,3.59v0.4h-1.65v1.56h1.65v7.98h1.95v-7.98h2.14v-1.56h-2.14v-0.33C184.38,48.75,184.83,48.15,186.03,48.15z
	"/>
<path class="st0" d="M192.05,50.03c-3.03,0-4.6,2.31-4.6,5.29c0,2.84,1.4,4.99,4.87,4.99c1.15,0.02,2.28-0.2,3.34-0.65l-0.37-1.6
	c-0.89,0.36-1.85,0.55-2.81,0.55h-0.02c-1.49,0.18-2.85-0.88-3.03-2.38c-0.03-0.23-0.03-0.46,0-0.68h6.35v-1.16
	C195.79,51.86,194.73,50.03,192.05,50.03z M189.49,54.12c-0.02-1.34,1.01-2.45,2.34-2.54h0.02c1.55,0,2.1,0.98,2.11,2.54
	L189.49,54.12z"/>
<path class="st0" d="M212.92,50.18c-1.16,0.01-2.26,0.48-3.08,1.3c-0.06-0.43-0.16-0.86-0.32-1.26l-1.83,0.25
	c0.16,0.65,0.24,1.32,0.23,2v7.56h2v-7.17c0.63-0.65,1.49-1.02,2.39-1.03c1.35,0,1.76,0.91,1.76,2.14v6.05h1.99v-6.55
	C216.07,51.74,215.41,50.18,212.92,50.18z"/>
<path class="st0" d="M258.24,50.18c-1.16,0.01-2.26,0.48-3.08,1.3c-0.06-0.43-0.16-0.86-0.32-1.26l-1.83,0.25
	c0.16,0.65,0.24,1.32,0.23,2v7.56h1.99v-7.17c0.63-0.65,1.49-1.02,2.39-1.03c1.35,0,1.76,0.91,1.76,2.14v6.05h1.99v-6.55
	C261.4,51.74,260.73,50.18,258.24,50.18z"/>
<path class="st0" d="M268.4,58.59c-2.01,0-2.88-1.33-2.88-3.31c0-2.06,0.78-3.52,2.81-3.52c0.64,0.01,1.27,0.12,1.86,0.33l0.37-1.68
	c-0.73-0.23-1.49-0.35-2.26-0.35c-3.72,0-4.79,2.49-4.79,5.2v0.02c0,2.58,1.06,5.02,4.77,5.02c0.79,0,1.57-0.11,2.33-0.35
	l-0.28-1.71C269.71,58.48,269.06,58.6,268.4,58.59z"/>
<path class="st0" d="M280,54.39c0-2.53-1.06-4.36-3.74-4.36c-3.03,0-4.6,2.31-4.6,5.29c0,2.84,1.4,4.99,4.87,4.99
	c1.15,0.02,2.28-0.2,3.34-0.65l-0.37-1.6c-0.89,0.36-1.85,0.55-2.81,0.55h-0.02c-1.49,0.18-2.85-0.88-3.03-2.38
	c-0.03-0.23-0.03-0.46,0-0.68H280V54.39z M273.7,54.12c-0.02-1.34,1.01-2.45,2.34-2.54h0.02c1.55,0,2.09,0.98,2.11,2.54H273.7z"/>
<path class="st0" d="M250.61,53.34c0-2.21-0.83-3.27-3.37-3.27c-1.22,0.01-2.43,0.27-3.54,0.76l0.43,1.66
	c0.88-0.48,1.87-0.74,2.88-0.76c1.55,0,1.73,0.65,1.73,1.63v0.65c-4.56,0.2-5.8,0.9-5.8,3.23c-0.1,1.57,1.1,2.92,2.67,3.02
	c0.15,0.01,0.3,0.01,0.45-0.01c1.2,0.04,2.33-0.59,2.93-1.63c0.07,0.57,0.28,1.11,0.62,1.58l1.68-0.3
	c-0.51-0.84-0.75-1.81-0.67-2.79V53.34z M248.73,56.83c-0.26,1.06-1.21,1.79-2.29,1.78c-0.66,0-1.65-0.25-1.65-1.43
	c0-1.28,0.91-1.53,3.94-1.69L248.73,56.83z"/>
<path class="st0" d="M221.9,54.3c-1.21-0.58-1.68-0.88-1.68-1.53c0-0.9,0.82-1.12,1.43-1.12c0.73,0.02,1.46,0.18,2.13,0.48
	l0.48-1.61c-0.84-0.28-1.72-0.43-2.61-0.43c-1.45,0-3.39,0.5-3.39,2.78c0,1.54,0.88,2.14,2.23,2.76c1.3,0.6,1.98,1.01,1.98,1.76
	c0,0.96-0.66,1.21-1.43,1.21c-0.92-0.04-1.83-0.24-2.68-0.6l-0.45,1.7c1.07,0.37,2.19,0.56,3.32,0.58c1.5,0,3.21-0.65,3.21-2.98
	C224.44,55.65,223.27,54.95,221.9,54.3z"/>
<rect x="203.06" y="47.26" class="st0" width="2.06" height="12.77"/>
<path class="st0" d="M239.1,51.68c-0.06-0.5-0.17-0.99-0.33-1.46l-1.83,0.25c0.18,0.77,0.25,1.57,0.23,2.36v7.2h2v-6.6
	c0.62-0.98,1.74-1.53,2.89-1.41l0.1-1.78C240.96,50.18,239.82,50.72,239.1,51.68z"/>
<path class="st0" d="M234.47,50.37h-2.01v7.18c-0.62,0.65-1.48,1.02-2.38,1.03c-1.36,0-1.76-0.91-1.76-2.13v-6.08h-2v6.57
	c0,1.73,0.67,3.31,3.16,3.31c1.15-0.01,2.26-0.47,3.09-1.26c0.06,0.41,0.16,0.82,0.3,1.21l1.88-0.26c-0.21-0.88-0.3-1.78-0.28-2.68
	L234.47,50.37z"/>
<path class="st0" d="M124.89,25.21v-1.61c0.01-0.1-0.06-0.2-0.16-0.22c-0.03,0-0.06,0-0.09,0.01c-3.84,1.02-7.79,1.59-11.76,1.72
	h-0.02c-0.19,0-0.35,0.16-0.36,0.35l0,2.57c0,0.19,0.16,0.35,0.35,0.35l0,0h0.02l0.01,0c4.05-0.36,8.02-1.32,11.79-2.86
	C124.8,25.48,124.89,25.35,124.89,25.21z"/>
<path class="st0" d="M138.95,2.99h-30.42c-1.03,0-1.87,0.84-1.88,1.87v27.29c0,1.03,0.83,1.87,1.87,1.88h30.42
	c1.03,0,1.87-0.83,1.87-1.87c0,0,0,0,0,0V4.86C140.81,3.83,139.98,2.99,138.95,2.99z M128.86,5.27h2.62
	c0.13,0.69,0.32,1.77,0.52,3.11h-3.08C128.84,6.94,128.84,5.86,128.86,5.27z M110.9,5.27h14.63c0.02,0.59,0.07,1.67,0.21,3.11H110.9
	L110.9,5.27z M136.56,31.75H110.9l0.01-21.07H126c0.52,4.12,1.59,8.15,3.19,11.98c-1.49,2.24-3.37,4.19-5.56,5.76
	c-0.1,0.07-0.13,0.21-0.06,0.31c0,0,0,0.01,0.01,0.01l0.69,1.32c0,0,0.1,0.26,0.32,0.1c2.23-1.31,4.2-3,5.83-5.01
	c1.08,2,2.48,3.82,4.15,5.37c0.07,0.1,0.21,0.13,0.32,0.06c0.01-0.01,0.02-0.01,0.02-0.02l1.04-1.23c0,0,0.14-0.11-0.02-0.25
	c-1.55-1.87-2.83-3.96-3.79-6.2c1.15-1.69,2.17-3.46,3.06-5.29c0.15-0.29-0.11-0.38-0.11-0.38l-2.19-0.89
	c-0.13-0.06-0.27,0-0.33,0.13c0,0.01-0.01,0.02-0.01,0.03c-0.48,1.13-1.01,2.24-1.59,3.32c-0.94-2.96-1.57-6.02-1.87-9.12h5.52
	c0,0,0.79,0,0.75-0.97c-0.32-1.73-0.63-3.46-0.82-4.44h2.01L136.56,31.75z"/>
<path class="st0" d="M114.38,21.77l8.65,0c1.03,0,1.87-0.84,1.87-1.87l0-5.35c0-1.03-0.83-1.87-1.87-1.87l-8.65,0
	c-1.03,0-1.87,0.84-1.87,1.87c0,0,0,0,0,0l0,5.35C112.51,20.93,113.34,21.77,114.38,21.77C114.37,21.77,114.37,21.77,114.38,21.77z
	 M116.64,14.65h4.12l0,5.16l-4.12,0L116.64,14.65z"/>
<path class="st0" d="M235.71,6.42h12.46l0,1.17h-9.82c-0.19,0-0.35,0.16-0.35,0.35c0,0,0,0,0,0v1.52c0,0.19,0.16,0.35,0.35,0.35
	c0,0,0,0,0,0h24.07c0.19,0,0.35-0.16,0.35-0.35V7.94c0-0.19-0.16-0.35-0.35-0.35h-9.83l0-1.17h12.46c0.19,0,0.35-0.16,0.35-0.35
	c0,0,0,0,0,0V4.55c0-0.19-0.15-0.35-0.35-0.35c0,0,0,0,0,0h-12.46V3.13c0-0.24-0.19-0.44-0.43-0.44c0,0,0,0,0,0h-3.56
	c-0.24,0-0.43,0.2-0.43,0.44c0,0,0,0,0,0l0,1.08h-12.46c-0.19,0-0.35,0.16-0.35,0.35v1.52C235.36,6.27,235.52,6.42,235.71,6.42z"/>
<path class="st0" d="M236.72,17.74c-0.19,0-0.35,0.16-0.35,0.35v1.53c0,0.19,0.16,0.35,0.35,0.35h27.33c0.19,0,0.35-0.16,0.35-0.35
	v-1.53c0-0.19-0.16-0.35-0.35-0.35h-11.46l0-1.17h9.82c0.19,0,0.35-0.16,0.35-0.35c0,0,0,0,0,0v-1.52c0-0.19-0.16-0.35-0.35-0.35
	h-24.07c-0.19,0-0.35,0.16-0.35,0.35c0,0,0,0,0,0v1.52c0,0.19,0.15,0.35,0.35,0.35c0,0,0,0,0,0h9.82l0,1.17H236.72z"/>
<path class="st0" d="M265.63,10.98h-29.88c-0.24-0.01-0.44,0.18-0.45,0.42c0,0,0,0,0,0v1.36c0,0.24,0.2,0.44,0.45,0.44h28.6
	l-0.75,2.94c0,0.24,0.19,0.44,0.43,0.44c0,0,0,0,0,0h2.05c0.3,0,0.31-0.19,0.41-0.44c0,0,0.78-2.38,0.99-3.21
	C267.68,12.17,267.52,10.98,265.63,10.98z"/>
<path class="st0" d="M246.81,24.59h-8.57c-1.03,0-1.87,0.83-1.87,1.86c0,0,0,0,0,0v4.03c0,1.03,0.84,1.87,1.87,1.87c0,0,0,0,0,0
	h8.56c1.03,0,1.87-0.83,1.87-1.86c0,0,0,0,0,0l0-4.03C248.67,25.42,247.84,24.59,246.81,24.59z M244.54,30.39h-4.05v-3.85h4.05
	V30.39z"/>
<path class="st0" d="M266.99,21.13h-33.23c-0.19,0-0.35,0.16-0.35,0.35V23c0,0.19,0.16,0.35,0.35,0.35h24.76l0,1.24h-8.27
	c-0.19,0-0.35,0.16-0.35,0.35v1.52c0,0.19,0.16,0.35,0.35,0.35h2.47l0.48,3.27c0.01,0.19,0.17,0.33,0.36,0.32c0,0,0,0,0,0h2.56
	c0.11,0.01,0.2-0.07,0.21-0.18v0l-0.92-3.41h3.11l0,3.47c-0.02,0.94-0.18,1.45-1.73,1.45h-0.88c-0.11,0-0.13,0.07-0.13,0.11v1.66
	c0,0.29,0.24,0.53,0.53,0.53l1.61,0c3.67,0,4.84-0.5,4.84-3.69V26.8h2.28c0.19,0,0.35-0.16,0.35-0.35c0,0,0,0,0,0v-1.52
	c0-0.19-0.16-0.35-0.35-0.35h-2.28v-1.24h4.22c0.19,0,0.35-0.16,0.35-0.35v-1.52C267.33,21.29,267.18,21.13,266.99,21.13z"/>
<path class="st0" d="M223.51,30.7c-12.25-7.84-12.59-24.78-12.58-27.22c0-0.16-0.13-0.29-0.29-0.3h-4.21
	c-0.16,0-0.29,0.13-0.29,0.29c0,0,0,0,0,0c0.02,2.44-0.33,19.38-12.58,27.22c-0.66,0.41-1.48,0.85-2.12,1.18
	c-0.27,0.17-0.07,0.46-0.07,0.46l1.14,1.45c0.12,0.2,0.38,0.29,0.6,0.19c0.01,0,0.02-0.01,0.02-0.01v0
	c9.15-3.73,13.42-11.57,15.4-18.42c1.98,6.85,6.25,14.69,15.4,18.42l0,0c0.01,0,0.01,0.01,0.02,0.01c0.22,0.09,0.48,0.01,0.6-0.19
	l1.14-1.45c0,0,0.2-0.29-0.07-0.46C224.98,31.54,224.17,31.1,223.51,30.7z"/>
<path class="st0" d="M183.17,15.42h-21.65c0.76-0.98,1.47-1.98,2.11-2.96h15.45c0.19,0,0.35-0.15,0.35-0.35c0,0,0,0,0,0v-1.86
	c0-0.19-0.15-0.35-0.35-0.35c0,0,0,0,0,0h-13.89c0.6-1.06,1.12-2.06,1.55-2.96h15.19c0.19,0,0.35-0.16,0.35-0.35c0,0,0,0,0,0V4.72
	c0-0.19-0.16-0.35-0.35-0.35c0,0,0,0,0,0h-14.06c0.15-0.37,0.27-0.69,0.35-0.93c0.12-0.35,0.1-0.6-0.29-0.7
	c-0.83-0.18-2.51-0.52-3-0.65c-0.32-0.1-0.66,0.09-0.75,0.41c-0.01,0.03-0.02,0.06-0.02,0.09l-0.27,0.88
	c-0.09,0.27-0.19,0.58-0.31,0.9h-12.54c-0.19,0-0.35,0.15-0.35,0.35v1.87c0,0.19,0.16,0.35,0.35,0.35h11.49
	c-0.41,0.93-0.9,1.92-1.45,2.96h-7.25c-0.19,0-0.35,0.16-0.35,0.35c0,0,0,0,0,0v1.87c0,0.19,0.15,0.35,0.34,0.35c0,0,0,0,0,0h5.77
	c-0.62,1-1.3,1.99-2.04,2.96h-7.87c-0.19,0-0.35,0.16-0.35,0.35c0,0,0,0,0,0v1.87c0,0.19,0.15,0.35,0.35,0.35h5.68
	c-1.63,1.76-3.56,3.21-5.71,4.27c-0.24,0.06-0.4,0.3-0.34,0.54c0.01,0.05,0.03,0.09,0.05,0.13l0.41,1c0.09,0.23,0.35,0.34,0.58,0.25
	c0.02-0.01,0.04-0.02,0.06-0.03c1.33-0.48,2.6-1.11,3.79-1.87c2.36,0.67,4.67,1.52,6.9,2.53c0.11,0.08,0.27,0.06,0.35-0.05
	c0.01-0.01,0.01-0.01,0.01-0.02l1-2.11c0.08-0.12,0.06-0.28-0.06-0.36c-0.02-0.01-0.03-0.02-0.05-0.03
	c-1.88-0.71-3.81-1.27-5.77-1.69c0.97-0.8,1.88-1.65,2.74-2.56h13.56c0.85,0.87,1.76,1.68,2.73,2.42c-1.82,0.76-3.73,1.26-5.68,1.5
	c-0.19,0.02-0.27,0.15-0.21,0.36c0.28,0.84,0.37,1.5,0.65,2.33c0.09,0.28,0.22,0.27,0.41,0.23c2.45-0.66,4.79-1.65,6.97-2.94
	c1.47,0.92,3.03,1.69,4.65,2.29c0.22,0.12,0.49,0.04,0.61-0.17c0.01-0.02,0.02-0.03,0.02-0.05l0.41-1c0.13-0.21,0.06-0.49-0.15-0.62
	c-0.04-0.02-0.09-0.04-0.13-0.05c-2.33-1.08-4.46-2.53-6.33-4.28h6.34c0.19,0,0.35-0.16,0.35-0.35v-1.87
	C183.52,15.57,183.36,15.42,183.17,15.42C183.17,15.42,183.17,15.42,183.17,15.42z"/>
<path class="st0" d="M170.74,26.82c-0.31-0.1-0.36,0.13-0.36,0.13l-0.63,1.37c-0.08,0.13-0.03,0.29,0.1,0.37
	c0.01,0.01,0.03,0.01,0.04,0.02c3.02,1.2,5.96,2.61,8.8,4.21c0.29,0.16,0.65,0.09,0.87-0.16c0.54-0.8,0.77-1.17,1.32-1.97
	c0.1-0.15,0.06-0.36-0.1-0.46c-0.01-0.01-0.02-0.01-0.04-0.02C177.53,28.8,174.18,27.63,170.74,26.82z"/>
<path class="st0" d="M162.83,28.01c-0.11-0.75-0.13-0.65-0.28-1.41c-0.01-0.13-0.13-0.22-0.26-0.21c-0.03,0-0.06,0.01-0.08,0.02
	c-3.4,1.62-6.97,2.87-10.64,3.72c-0.16,0.03-0.26,0.18-0.24,0.34c0.01,0.03,0.02,0.07,0.04,0.1c0.31,0.65,0.82,1.79,1.04,2.28
	c0.11,0.2,0.36,0.29,0.58,0.2c3.35-1.24,6.59-2.77,9.68-4.58C162.83,28.38,162.89,28.19,162.83,28.01z"/>
<path class="st0" d="M166.57,19.71h-1.96c-0.24,0-0.43,0.19-0.43,0.42v10.15c-0.02,0.94-0.18,1.45-1.72,1.45h-0.89
	c-0.15,0-0.13,0.13-0.13,0.13v1.64c0,0.29,0.24,0.53,0.53,0.53c0,0,0,0,0,0h1.62c3.67,0,4.84-0.5,4.84-3.69l0-8.76
	C168.44,20.55,167.6,19.71,166.57,19.71z"/>
<g>
	<g>
		<path class="st1" d="M78.79,26.87c-1.35-1.3-2.22-3.03-2.46-4.89c-0.05-0.57-0.15-1.13-0.28-1.68l0,0
			c-0.94-3.69-3.69-6.65-7.29-7.88c-0.26-0.09-0.52-0.19-0.78-0.31l0,0c-1.46-0.64-2.69-1.74-3.49-3.12
			c-2.26-4.08-6.79-6.37-11.41-5.77c-1.87,0.23-3.75-0.19-5.35-1.18c-3.88-2.72-9.05-2.72-12.93,0c-1.59,1-3.48,1.41-5.35,1.18
			C24.82,2.62,20.3,4.91,18.04,9c-0.96,1.62-2.48,2.84-4.27,3.43c-4.19,1.42-7.15,5.16-7.58,9.56c-0.24,1.86-1.11,3.59-2.46,4.89
			c-2.4,2.32-3.75,5.51-3.73,8.85c0,0.05,0,0.11,0,0.16c0.08,6.12,4.61,11.26,10.67,12.1v0c0.56,0.08,1.13,0.12,1.69,0.12h17.76
			c1.69,0.01,3.06,1.39,3.05,3.08v0.72c0,1.62-1.2,3-2.8,3.22l-14.44,2.48c-0.51,0.03-0.91,0.44-0.95,0.94v1.77h52.56v-1.77
			c-0.04-0.51-0.45-0.91-0.96-0.94l-14.44-2.48c-1.61-0.22-2.8-1.6-2.8-3.22v-0.72c0-1.69,1.36-3.07,3.05-3.08h17.76
			c6.83,0,12.37-5.54,12.37-12.37c0,0,0,0,0,0C82.54,32.38,81.19,29.18,78.79,26.87z"/>
	</g>
	<g>
		<defs>
			<path id="SVGID_1_" d="M34.8,2.04c-1.59,1-3.48,1.41-5.35,1.18C24.82,2.62,20.3,4.91,18.04,9c-0.96,1.62-2.48,2.84-4.27,3.43
				c-4.19,1.42-7.15,5.16-7.58,9.56c-0.24,1.86-1.11,3.59-2.46,4.89c-2.4,2.32-3.75,5.51-3.73,8.85c0,0.05,0,0.11,0,0.16
				c7.26-7.35,15.85-13.25,25.31-17.38c15.27-6.85,30.76-8.83,42.66-6.38c-1.46-0.64-2.69-1.74-3.49-3.12
				c-2.26-4.08-6.79-6.37-11.41-5.77c-1.87,0.23-3.75-0.19-5.35-1.18C43.85-0.68,38.67-0.68,34.8,2.04"/>
		</defs>
		<clipPath id="SVGID_2_">
			<use xlink:href="#SVGID_1_"  style="overflow:visible;"/>
		</clipPath>
		<g class="st2">
			<g>
				<g>
					<defs>
						
							<rect id="SVGID_3_" x="-1.34" y="-19.76" transform="matrix(0.6293 -0.7771 0.7771 0.6293 -1.3421 33.0625)" width="70.66" height="75.4"/>
					</defs>
					<clipPath id="SVGID_4_">
						<use xlink:href="#SVGID_3_"  style="overflow:visible;"/>
					</clipPath>
					<polygon class="st3" points="85.52,24.95 13.65,-33.24 85.52,-33.24 					"/>
					<polygon class="st3" points="85.52,25.6 12.86,-33.24 13.65,-33.24 85.52,24.95 					"/>
					<polygon class="st4" points="85.52,26.24 12.06,-33.24 12.86,-33.24 85.52,25.6 					"/>
					<polygon class="st5" points="85.52,26.88 11.27,-33.24 12.06,-33.24 85.52,26.24 					"/>
					<polygon class="st6" points="85.52,27.53 10.48,-33.24 11.27,-33.24 85.52,26.88 					"/>
					<polygon class="st7" points="85.52,28.17 9.68,-33.24 10.48,-33.24 85.52,27.53 					"/>
					<polygon class="st8" points="85.52,28.81 8.89,-33.24 9.68,-33.24 85.52,28.17 					"/>
					<polygon class="st9" points="85.52,29.45 8.09,-33.24 8.89,-33.24 85.52,28.81 					"/>
					<polygon class="st10" points="85.52,30.1 7.3,-33.24 8.09,-33.24 85.52,29.45 					"/>
					<polygon class="st11" points="85.52,30.74 6.51,-33.24 7.3,-33.24 85.52,30.1 					"/>
					<polygon class="st12" points="85.52,31.38 5.71,-33.24 6.51,-33.24 85.52,30.74 					"/>
					<polygon class="st13" points="85.52,32.03 4.92,-33.24 5.71,-33.24 85.52,31.38 					"/>
					<polygon class="st14" points="85.52,32.67 4.12,-33.24 4.92,-33.24 85.52,32.03 					"/>
					<polygon class="st15" points="85.52,33.31 3.33,-33.24 4.12,-33.24 85.52,32.67 					"/>
					<polygon class="st16" points="85.52,33.95 2.54,-33.24 3.33,-33.24 85.52,33.31 					"/>
					<polygon class="st17" points="85.52,34.6 1.74,-33.24 2.54,-33.24 85.52,33.95 					"/>
					<polygon class="st18" points="85.52,35.24 0.95,-33.24 1.74,-33.24 85.52,34.6 					"/>
					<polygon class="st19" points="85.52,35.88 0.15,-33.24 0.95,-33.24 85.52,35.24 					"/>
					<polygon class="st20" points="85.52,36.53 -0.64,-33.24 0.15,-33.24 85.52,35.88 					"/>
					<polygon class="st21" points="85.52,37.17 -1.43,-33.24 -0.64,-33.24 85.52,36.53 					"/>
					<polygon class="st22" points="85.52,37.81 -2.23,-33.24 -1.43,-33.24 85.52,37.17 					"/>
					<polygon class="st23" points="85.52,38.46 -3.02,-33.24 -2.23,-33.24 85.52,37.81 					"/>
					<polygon class="st24" points="85.52,39.1 -3.82,-33.24 -3.02,-33.24 85.52,38.46 					"/>
					<polygon class="st25" points="85.52,39.74 -4.61,-33.24 -3.82,-33.24 85.52,39.1 					"/>
					<polygon class="st26" points="85.52,40.38 -5.4,-33.24 -4.61,-33.24 85.52,39.74 					"/>
					<polygon class="st27" points="85.52,41.03 -6.2,-33.24 -5.4,-33.24 85.52,40.38 					"/>
					<polygon class="st28" points="85.52,41.67 -6.99,-33.24 -6.2,-33.24 85.52,41.03 					"/>
					<polygon class="st29" points="85.52,42.31 -7.79,-33.24 -6.99,-33.24 85.52,41.67 					"/>
					<polygon class="st30" points="85.52,42.96 -8.58,-33.24 -7.79,-33.24 85.52,42.31 					"/>
					<polygon class="st31" points="85.52,43.6 -9.37,-33.24 -8.58,-33.24 85.52,42.96 					"/>
					<polygon class="st32" points="85.52,44.24 -10.17,-33.24 -9.37,-33.24 85.52,43.6 					"/>
					<polygon class="st33" points="85.52,44.89 -10.96,-33.24 -10.17,-33.24 85.52,44.24 					"/>
					<polygon class="st34" points="85.52,45.53 -11.76,-33.24 -10.96,-33.24 85.52,44.89 					"/>
					<polygon class="st35" points="85.52,46.17 -12.55,-33.24 -11.76,-33.24 85.52,45.53 					"/>
					<polygon class="st36" points="85.52,46.81 -13.34,-33.24 -12.55,-33.24 85.52,46.17 					"/>
					<polygon class="st37" points="85.52,47.46 -14.14,-33.24 -13.34,-33.24 85.52,46.81 					"/>
					<polygon class="st38" points="85.52,48.1 -14.93,-33.24 -14.14,-33.24 85.52,47.46 					"/>
					<polygon class="st39" points="85.52,48.74 -15.73,-33.24 -14.93,-33.24 85.52,48.1 					"/>
					<polygon class="st40" points="85.52,49.39 -16.52,-33.24 -15.73,-33.24 85.52,48.74 					"/>
					<polygon class="st41" points="85.52,50.03 -17.31,-33.24 -16.52,-33.24 85.52,49.39 					"/>
					<polygon class="st42" points="85.52,50.67 -17.55,-32.79 -17.55,-33.24 -17.31,-33.24 85.52,50.03 					"/>
					<polygon class="st43" points="85.52,51.32 -17.55,-32.15 -17.55,-32.79 85.52,50.67 					"/>
					<polygon class="st44" points="85.52,51.96 -17.55,-31.5 -17.55,-32.15 85.52,51.32 					"/>
					<polygon class="st45" points="85.52,52.6 -17.55,-30.86 -17.55,-31.5 85.52,51.96 					"/>
					<polygon class="st46" points="85.52,53.24 -17.55,-30.22 -17.55,-30.86 85.52,52.6 					"/>
					<polygon class="st47" points="85.52,53.89 -17.55,-29.57 -17.55,-30.22 85.52,53.24 					"/>
					<polygon class="st47" points="85.52,54.6 -17.55,-28.86 -17.55,-29.57 85.52,53.89 					"/>
					<polygon class="st48" points="85.52,55.31 -17.55,-28.15 -17.55,-28.86 85.52,54.6 					"/>
					<polygon class="st49" points="85.52,56.02 -17.55,-27.44 -17.55,-28.15 85.52,55.31 					"/>
					<polygon class="st50" points="85.52,56.74 -17.55,-26.73 -17.55,-27.44 85.52,56.02 					"/>
					<polygon class="st51" points="85.52,57.45 -17.55,-26.01 -17.55,-26.73 85.52,56.74 					"/>
					<polygon class="st52" points="85.52,58.16 -17.55,-25.3 -17.55,-26.01 85.52,57.45 					"/>
					<polygon class="st53" points="85.52,58.87 -17.55,-24.59 -17.55,-25.3 85.52,58.16 					"/>
					<polygon class="st54" points="85.52,59.58 -17.55,-23.88 -17.55,-24.59 85.52,58.87 					"/>
					<polygon class="st55" points="85.52,60.3 -17.55,-23.16 -17.55,-23.88 85.52,59.58 					"/>
					<polygon class="st56" points="85.52,61.01 -17.55,-22.45 -17.55,-23.16 85.52,60.3 					"/>
					<polygon class="st57" points="85.52,61.72 -17.55,-21.74 -17.55,-22.45 85.52,61.01 					"/>
					<polygon class="st58" points="85.52,62.43 -17.55,-21.03 -17.55,-21.74 85.52,61.72 					"/>
					<polygon class="st59" points="85.52,63.15 -17.55,-20.32 -17.55,-21.03 85.52,62.43 					"/>
					<polygon class="st60" points="85.52,63.86 -17.55,-19.6 -17.55,-20.32 85.52,63.15 					"/>
					<polygon class="st61" points="85.52,64.57 -17.55,-18.89 -17.55,-19.6 85.52,63.86 					"/>
					<polygon class="st62" points="85.52,65.28 -17.55,-18.18 -17.55,-18.89 85.52,64.57 					"/>
					<polygon class="st63" points="85.52,65.99 -17.55,-17.47 -17.55,-18.18 85.52,65.28 					"/>
					<polygon class="st64" points="85.52,66.71 -17.55,-16.76 -17.55,-17.47 85.52,65.99 					"/>
					<polygon class="st65" points="85.52,67.42 -17.55,-16.04 -17.55,-16.76 85.52,66.71 					"/>
					<polygon class="st66" points="85.52,68.13 -17.55,-15.33 -17.55,-16.04 85.52,67.42 					"/>
					<polygon class="st67" points="85.52,68.84 -17.55,-14.62 -17.55,-15.33 85.52,68.13 					"/>
					<polygon class="st68" points="84.98,69.12 -17.55,-13.91 -17.55,-14.62 85.52,68.84 85.52,69.12 					"/>
					<polygon class="st69" points="84.1,69.12 -17.55,-13.19 -17.55,-13.91 84.98,69.12 					"/>
					<polygon class="st70" points="83.23,69.12 -17.55,-12.48 -17.55,-13.19 84.1,69.12 					"/>
					<polygon class="st71" points="82.35,69.12 -17.55,-11.77 -17.55,-12.48 83.23,69.12 					"/>
					<polygon class="st72" points="81.47,69.12 -17.55,-11.06 -17.55,-11.77 82.35,69.12 					"/>
					<polygon class="st73" points="80.59,69.12 -17.55,-10.35 -17.55,-11.06 81.47,69.12 					"/>
					<polygon class="st74" points="79.71,69.12 -17.55,-9.63 -17.55,-10.35 80.59,69.12 					"/>
					<polygon class="st75" points="78.83,69.12 -17.55,-8.92 -17.55,-9.63 79.71,69.12 					"/>
					<polygon class="st76" points="77.95,69.12 -17.55,-8.21 -17.55,-8.92 78.83,69.12 					"/>
					<polygon class="st77" points="77.07,69.12 -17.55,-7.5 -17.55,-8.21 77.95,69.12 					"/>
					<polygon class="st78" points="76.19,69.12 -17.55,-6.78 -17.55,-7.5 77.07,69.12 					"/>
					<polygon class="st79" points="75.31,69.12 -17.55,-6.07 -17.55,-6.78 76.19,69.12 					"/>
					<polygon class="st80" points="74.43,69.12 -17.55,-5.36 -17.55,-6.07 75.31,69.12 					"/>
					<polygon class="st81" points="73.55,69.12 -17.55,-4.65 -17.55,-5.36 74.43,69.12 					"/>
					<polygon class="st82" points="72.67,69.12 -17.55,-3.94 -17.55,-4.65 73.55,69.12 					"/>
					<polygon class="st83" points="71.79,69.12 -17.55,-3.22 -17.55,-3.94 72.67,69.12 					"/>
					<polygon class="st84" points="70.91,69.12 -17.55,-2.51 -17.55,-3.22 71.79,69.12 					"/>
					<polygon class="st85" points="70.03,69.12 -17.55,-1.8 -17.55,-2.51 70.91,69.12 					"/>
					<polygon class="st86" points="69.15,69.12 -17.55,-1.09 -17.55,-1.8 70.03,69.12 					"/>
					<polygon class="st87" points="68.27,69.12 -17.55,-0.37 -17.55,-1.09 69.15,69.12 					"/>
					<polygon class="st88" points="67.39,69.12 -17.55,0.34 -17.55,-0.37 68.27,69.12 					"/>
					<polygon class="st89" points="66.51,69.12 -17.55,1.05 -17.55,0.34 67.39,69.12 					"/>
					<polygon class="st90" points="65.64,69.12 -17.55,1.76 -17.55,1.05 66.51,69.12 					"/>
					<polygon class="st91" points="64.76,69.12 -17.55,2.47 -17.55,1.76 65.64,69.12 					"/>
					<polygon class="st92" points="63.88,69.12 -17.55,3.19 -17.55,2.47 64.76,69.12 					"/>
					<polygon class="st93" points="63,69.12 -17.55,3.9 -17.55,3.19 63.88,69.12 					"/>
					<polygon class="st94" points="62.12,69.12 -17.55,4.61 -17.55,3.9 63,69.12 					"/>
					<polygon class="st94" points="60.95,69.12 -17.55,5.56 -17.55,4.61 62.12,69.12 					"/>
					<polygon class="st95" points="59.78,69.12 -17.55,6.51 -17.55,5.56 60.95,69.12 					"/>
					<polygon class="st96" points="58.61,69.12 -17.55,7.45 -17.55,6.51 59.78,69.12 					"/>
					<polygon class="st97" points="57.44,69.12 -17.55,8.4 -17.55,7.45 58.61,69.12 					"/>
					<polygon class="st98" points="56.27,69.12 -17.55,9.35 -17.55,8.4 57.44,69.12 					"/>
					<polygon class="st99" points="55.1,69.12 -17.55,10.29 -17.55,9.35 56.27,69.12 					"/>
					<polygon class="st100" points="53.93,69.12 -17.55,11.24 -17.55,10.29 55.1,69.12 					"/>
					<polygon class="st101" points="52.76,69.12 -17.55,12.19 -17.55,11.24 53.93,69.12 					"/>
					<polygon class="st102" points="51.59,69.12 -17.55,13.14 -17.55,12.19 52.76,69.12 					"/>
					<polygon class="st103" points="50.42,69.12 -17.55,14.08 -17.55,13.14 51.59,69.12 					"/>
					<polygon class="st104" points="49.25,69.12 -17.55,15.03 -17.55,14.08 50.42,69.12 					"/>
					<polygon class="st105" points="48.08,69.12 -17.55,15.98 -17.55,15.03 49.25,69.12 					"/>
					<polygon class="st106" points="46.91,69.12 -17.55,16.93 -17.55,15.98 48.08,69.12 					"/>
					<polygon class="st107" points="45.74,69.12 -17.55,17.87 -17.55,16.93 46.91,69.12 					"/>
					<polygon class="st108" points="44.57,69.12 -17.55,18.82 -17.55,17.87 45.74,69.12 					"/>
					<polygon class="st109" points="43.4,69.12 -17.55,19.77 -17.55,18.82 44.57,69.12 					"/>
					<polygon class="st110" points="42.23,69.12 -17.55,20.72 -17.55,19.77 43.4,69.12 					"/>
					<polygon class="st111" points="41.06,69.12 -17.55,21.66 -17.55,20.72 42.23,69.12 					"/>
					<polygon class="st111" points="-17.55,21.66 41.06,69.12 -17.55,69.12 					"/>
				</g>
			</g>
		</g>
	</g>
	<g>
		<defs>
			<path id="SVGID_5_" d="M25.31,18.49C15.85,22.63,7.26,28.53,0,35.88c0.08,6.12,4.61,11.26,10.67,12.1
				c6.62-7.9,16.33-15.22,28.12-20.51c13.05-5.85,26.26-8.15,37.26-7.16c-0.94-3.69-3.69-6.65-7.29-7.88
				c-0.26-0.09-0.52-0.19-0.78-0.31c-3.44-0.69-6.95-1.03-10.46-1.01C46.38,11.3,35.42,13.82,25.31,18.49"/>
		</defs>
		<clipPath id="SVGID_6_">
			<use xlink:href="#SVGID_5_"  style="overflow:visible;"/>
		</clipPath>
		<g class="st112">
			<g>
				<g>
					<defs>
						
							<rect id="SVGID_7_" x="-0.23" y="-11.61" transform="matrix(0.6293 -0.7771 0.7771 0.6293 -8.8612 40.4998)" width="76.51" height="82.3"/>
					</defs>
					<clipPath id="SVGID_8_">
						<use xlink:href="#SVGID_7_"  style="overflow:visible;"/>
					</clipPath>
					<polygon class="st113" points="94.08,20.44 36.62,-26.09 94.08,-26.09 					"/>
					<polygon class="st113" points="94.08,21.35 35.5,-26.09 36.62,-26.09 94.08,20.44 					"/>
					<polygon class="st114" points="94.08,22.25 34.38,-26.09 35.5,-26.09 94.08,21.35 					"/>
					<polygon class="st115" points="94.08,23.16 33.27,-26.09 34.38,-26.09 94.08,22.25 					"/>
					<polygon class="st116" points="94.08,24.06 32.15,-26.09 33.27,-26.09 94.08,23.16 					"/>
					<polygon class="st117" points="94.08,24.97 31.03,-26.09 32.15,-26.09 94.08,24.06 					"/>
					<polygon class="st118" points="94.08,25.87 29.92,-26.09 31.03,-26.09 94.08,24.97 					"/>
					<polygon class="st119" points="94.08,26.78 28.8,-26.09 29.92,-26.09 94.08,25.87 					"/>
					<polygon class="st120" points="94.08,27.68 27.68,-26.09 28.8,-26.09 94.08,26.78 					"/>
					<polygon class="st121" points="94.08,28.58 26.56,-26.09 27.68,-26.09 94.08,27.68 					"/>
					<polygon class="st122" points="94.08,29.49 25.45,-26.09 26.56,-26.09 94.08,28.58 					"/>
					<polygon class="st123" points="94.08,30.39 24.33,-26.09 25.45,-26.09 94.08,29.49 					"/>
					<polygon class="st124" points="94.08,31.3 23.21,-26.09 24.33,-26.09 94.08,30.39 					"/>
					<polygon class="st125" points="94.08,32.2 22.1,-26.09 23.21,-26.09 94.08,31.3 					"/>
					<polygon class="st126" points="94.08,33.11 20.98,-26.09 22.1,-26.09 94.08,32.2 					"/>
					<polygon class="st127" points="94.08,34.01 19.86,-26.09 20.98,-26.09 94.08,33.11 					"/>
					<polygon class="st128" points="94.08,34.92 18.75,-26.09 19.86,-26.09 94.08,34.01 					"/>
					<polygon class="st129" points="94.08,35.82 17.63,-26.09 18.75,-26.09 94.08,34.92 					"/>
					<polygon class="st130" points="94.08,36.72 16.51,-26.09 17.63,-26.09 94.08,35.82 					"/>
					<polygon class="st131" points="94.08,37.63 15.39,-26.09 16.51,-26.09 94.08,36.72 					"/>
					<polygon class="st132" points="94.08,38.53 14.28,-26.09 15.39,-26.09 94.08,37.63 					"/>
					<polygon class="st133" points="94.08,39.44 13.16,-26.09 14.28,-26.09 94.08,38.53 					"/>
					<polygon class="st134" points="94.08,40.34 12.04,-26.09 13.16,-26.09 94.08,39.44 					"/>
					<polygon class="st135" points="94.08,41.25 10.93,-26.09 12.04,-26.09 94.08,40.34 					"/>
					<polygon class="st135" points="94.08,42.37 9.54,-26.09 10.93,-26.09 94.08,41.25 					"/>
					<polygon class="st136" points="94.08,43.49 8.16,-26.09 9.54,-26.09 94.08,42.37 					"/>
					<polygon class="st137" points="94.08,44.61 6.77,-26.09 8.16,-26.09 94.08,43.49 					"/>
					<polygon class="st138" points="94.08,45.74 5.39,-26.09 6.77,-26.09 94.08,44.61 					"/>
					<polygon class="st139" points="94.08,46.86 4,-26.09 5.39,-26.09 94.08,45.74 					"/>
					<polygon class="st140" points="94.08,47.98 2.61,-26.09 4,-26.09 94.08,46.86 					"/>
					<polygon class="st141" points="94.08,49.1 1.23,-26.09 2.61,-26.09 94.08,47.98 					"/>
					<polygon class="st142" points="94.08,50.22 -0.16,-26.09 1.23,-26.09 94.08,49.1 					"/>
					<polygon class="st143" points="94.08,51.35 -1.54,-26.09 -0.16,-26.09 94.08,50.22 					"/>
					<polygon class="st144" points="94.08,52.47 -2.93,-26.09 -1.54,-26.09 94.08,51.35 					"/>
					<polygon class="st145" points="94.08,53.59 -4.31,-26.09 -2.93,-26.09 94.08,52.47 					"/>
					<polygon class="st146" points="94.08,54.71 -5.7,-26.09 -4.31,-26.09 94.08,53.59 					"/>
					<polygon class="st147" points="94.08,55.83 -7.08,-26.09 -5.7,-26.09 94.08,54.71 					"/>
					<polygon class="st148" points="94.08,56.95 -8.47,-26.09 -7.08,-26.09 94.08,55.83 					"/>
					<polygon class="st149" points="94.08,58.08 -9.86,-26.09 -8.47,-26.09 94.08,56.95 					"/>
					<polygon class="st150" points="94.08,59.2 -11.24,-26.09 -9.86,-26.09 94.08,58.08 					"/>
					<polygon class="st151" points="94.08,60.32 -12.63,-26.09 -11.24,-26.09 94.08,59.2 					"/>
					<polygon class="st152" points="94.08,61.44 -14.01,-26.09 -12.63,-26.09 94.08,60.32 					"/>
					<polygon class="st153" points="94.08,62.56 -15.4,-26.09 -14.01,-26.09 94.08,61.44 					"/>
					<polygon class="st154" points="94.08,63.69 -16.78,-26.09 -15.4,-26.09 94.08,62.56 					"/>
					<polygon class="st155" points="94.08,64.81 -18.03,-25.98 -18.03,-26.09 -16.78,-26.09 94.08,63.69 					"/>
					<polygon class="st156" points="94.08,65.93 -18.03,-24.85 -18.03,-25.98 94.08,64.81 					"/>
					<polygon class="st157" points="94.08,67.05 -18.03,-23.73 -18.03,-24.85 94.08,65.93 					"/>
					<polygon class="st158" points="94.08,68.17 -18.03,-22.61 -18.03,-23.73 94.08,67.05 					"/>
					<polygon class="st159" points="94.08,69.3 -18.03,-21.49 -18.03,-22.61 94.08,68.17 					"/>
					<polygon class="st159" points="94.08,71.01 -18.03,-19.77 -18.03,-21.49 94.08,69.3 					"/>
					<polygon class="st160" points="94.08,72.73 -18.03,-18.06 -18.03,-19.77 94.08,71.01 					"/>
					<polygon class="st161" points="94.08,74.44 -18.03,-16.34 -18.03,-18.06 94.08,72.73 					"/>
					<polygon class="st162" points="94.08,76.15 -18.03,-14.63 -18.03,-16.34 94.08,74.44 					"/>
					<polygon class="st163" points="94.08,77.87 -18.03,-12.92 -18.03,-14.63 94.08,76.15 					"/>
					<polygon class="st164" points="94.08,79.58 -18.03,-11.2 -18.03,-12.92 94.08,77.87 					"/>
					<polygon class="st165" points="94.08,81.3 -18.03,-9.49 -18.03,-11.2 94.08,79.58 					"/>
					<polygon class="st166" points="94.08,83.01 -18.03,-7.77 -18.03,-9.49 94.08,81.3 					"/>
					<polygon class="st167" points="94.08,84.73 -18.03,-6.06 -18.03,-7.77 94.08,83.01 					"/>
					<polygon class="st168" points="92.5,85.17 -18.03,-4.34 -18.03,-6.06 94.08,84.73 94.08,85.17 					"/>
					<polygon class="st169" points="90.39,85.17 -18.03,-2.63 -18.03,-4.34 92.5,85.17 					"/>
					<polygon class="st170" points="88.27,85.17 -18.03,-0.91 -18.03,-2.63 90.39,85.17 					"/>
					<polygon class="st171" points="86.15,85.17 -18.03,0.8 -18.03,-0.91 88.27,85.17 					"/>
					<polygon class="st172" points="84.03,85.17 -18.03,2.51 -18.03,0.8 86.15,85.17 					"/>
					<polygon class="st173" points="81.92,85.17 -18.03,4.23 -18.03,2.51 84.03,85.17 					"/>
					<polygon class="st173" points="76.72,85.17 -18.03,8.44 -18.03,4.23 81.92,85.17 					"/>
					<polygon class="st174" points="71.53,85.17 -18.03,12.64 -18.03,8.44 76.72,85.17 					"/>
					<polygon class="st175" points="66.33,85.17 -18.03,16.85 -18.03,12.64 71.53,85.17 					"/>
					<polygon class="st176" points="61.14,85.17 -18.03,21.05 -18.03,16.85 66.33,85.17 					"/>
					<polygon class="st177" points="55.94,85.17 -18.03,25.26 -18.03,21.05 61.14,85.17 					"/>
					<polygon class="st177" points="-18.03,25.26 55.94,85.17 -18.03,85.17 					"/>
				</g>
			</g>
		</g>
	</g>
	<g>
		<path class="st1" d="M78.79,26.87c-1.35-1.3-2.22-3.03-2.46-4.89c-0.05-0.57-0.15-1.13-0.28-1.68
			c-10.99-0.98-24.21,1.31-37.26,7.17C27,32.75,17.29,40.07,10.67,47.97c0.56,0.08,1.13,0.12,1.7,0.12h17.76
			c1.69,0.01,3.06,1.39,3.05,3.08v0.72c0,1.62-1.2,3-2.8,3.22l-14.44,2.48c-0.51,0.03-0.91,0.44-0.95,0.94v1.77h52.56v-1.77
			c-0.04-0.51-0.45-0.91-0.96-0.94l-14.44-2.48c-1.61-0.22-2.8-1.6-2.8-3.22v-0.72c0-1.69,1.36-3.07,3.05-3.08h17.76
			c6.83,0,12.37-5.54,12.37-12.37c0,0,0,0,0,0C82.54,32.38,81.19,29.19,78.79,26.87"/>
	</g>
</g>
</svg>
