<?xml version="1.0" encoding="utf-8"?>
<!-- Generator: Adobe Illustrator 25.0.0, SVG Export Plug-In . SVG Version: 6.00 Build 0)  -->
<svg version="1.1" id="圖層_1" xmlns="http://www.w3.org/2000/svg" xmlns:xlink="http://www.w3.org/1999/xlink" x="0px" y="0px"
	 viewBox="0 0 456.51 484.09" style="enable-background:new 0 0 456.51 484.09;" xml:space="preserve">
<style type="text/css">
	.st0{fill:#AE8489;}
	.st1{fill:#FEF4F6;}
</style>
<path class="st0" d="M321.56,423.02H127.52c-43.34,0-78.48-35.14-78.48-78.48V150.5c0-43.34,35.14-78.48,78.48-78.48h194.04
	c43.34,0,78.48,35.14,78.48,78.48v194.04C400.04,387.89,364.91,423.02,321.56,423.02z"/>
<g>
	<path class="st1" d="M200.91,245.48c8.39-9.51,19.68-21.31,29.04-28.54c14.84-9.75,24.71-13.55,39.5-13.55
		c10.67,0,20.28,1.81,28.84,5.45s14.9,8.6,19.02,14.91c4.93,7.55,7.4,12.19,7.4,32.35l-0.3,21.36l-0.3,28.24l1.21,48.88h-77.6
		l0.6-88.59l0.03-34.14c-0.39-2.95-3-6.87-9.25-6.29c-5.13,0.48-13.77,7.51-19.19,12.4c-5.96,5.39-13.87,14.19-19.12,22.52
		l-0.18,5.22l0.52,62.36l0.39,26.52h-77.61l0.3-60.5v-68.95l-0.45-78.07l0.15-6.59h77v4.01l0.15,42.95l-0.15,15.19V245.48z"/>
</g>
</svg>
