<?xml version="1.0" encoding="utf-8"?>
<!-- Generator: Adobe Illustrator 25.0.0, SVG Export Plug-In . SVG Version: 6.00 Build 0)  -->
<svg version="1.1" id="圖層_1" xmlns="http://www.w3.org/2000/svg" xmlns:xlink="http://www.w3.org/1999/xlink" x="0px" y="0px"
	 viewBox="0 0 595.28 129" style="enable-background:new 0 0 595.28 129;" xml:space="preserve">
<style type="text/css">
	.st0{fill:#AE8489;}
</style>
<g>
	<g>
		<path class="st0" d="M73.39,61.88c2.98-3.38,6.86-7.76,10.18-10.32c5.27-3.46,8.9-4.62,14.15-4.62c3.79,0,7.2,0.64,10.24,1.93
			c3.04,1.29,5.29,3.05,6.75,5.29c1.75,2.68,2.63,4.33,2.63,11.49l-0.11,7.58l-0.11,10.03l0.43,17.35H90l0.21-31.45l0.01-12.12
			c0.06-0.92-1.06-2.44-3.28-2.23c-1.82,0.17-4.73,2.78-6.56,4.65c-1.99,2.04-5.17,4.79-7.04,7.75l-0.06,1.85l0.18,22.14l0.14,9.41
			H46.05l0.11-21.48V54.66L46,26.94l0.05-2.34h27.33v1.42l0.05,15.25l-0.05,5.39V61.88z"/>
	</g>
</g>
<path class="st0" d="M163.67,67.18v-5.99c-0.04-4.16-0.1-6.71-0.21-7.66c-0.1-0.95-0.41-1.8-0.93-2.56
	c-1.25-1.83-4.15-2.75-8.71-2.75c-7.05,0-12.49,2.1-16.33,6.29c-1.55,1.7-2.87,2.55-3.94,2.55c-0.8,0-1.49-0.26-2.07-0.78
	c-0.59-0.52-0.88-1.13-0.88-1.82c0-2.06,2.57-4.19,7.71-6.39c4.9-2.09,11.23-3.14,18.99-3.14c12.76,0,21.77,1.83,27.01,5.5
	c2.28,1.61,3.76,3.41,4.45,5.41c0.69,1.99,1.04,5.51,1.04,10.56V85.9c-0.14,3.6-0.03,6.31,0.33,8.13c0.36,1.82,1.18,3.78,2.46,5.87
	h-28.98v-5.16c-3.17,2.06-6.32,3.62-9.44,4.66c-3.12,1.05-6.2,1.57-9.24,1.57c-5.14,0-9.71-1.43-13.71-4.27
	c-5.21-3.74-7.81-8.58-7.81-14.54c0-5.27,2.11-9.54,6.32-12.78c4.9-3.83,10.98-5.74,18.24-5.74c2.97,0,5.59,0.25,7.87,0.76
	C158.12,64.91,160.73,65.84,163.67,67.18z M163.67,70.72c-4.34-2.06-7.71-3.09-10.09-3.09c-2,0-3.31,0.75-3.93,2.26
	c-0.34,0.82-0.52,3.19-0.52,7.13v11.74c0.03,2.59,0.12,4.16,0.26,4.72c0.34,1.51,1.52,2.26,3.52,2.26c1.58,0,3.35-0.45,5.3-1.35
	c1.95-0.9,3.74-2.09,5.36-3.56L163.67,70.72z"/>
<path class="st0" d="M230.06,23.92l-0.57,20.91l-0.05,1.53c3,0,5.73-0.11,8.18-0.35c0.42-0.03,0.78-0.05,1.09-0.05
	c1.52,0,2.28,0.67,2.28,1.99c0,1.23-0.8,1.84-2.38,1.84c-0.48,0-1.09-0.03-1.81-0.1c-2.73-0.2-4.68-0.3-5.85-0.3h-1.5l-0.05,9.52
	L229.57,78l0.13,10.21c0,2.4,0.19,4.06,0.57,5.01c0.38,0.95,1.04,1.43,1.98,1.43c1.25,0,2.58-0.69,4-2.06
	c1.39-1.38,2.48-3.06,3.28-5.06c0.73-1.9,1.59-2.85,2.59-2.85c1.17,0,1.76,0.62,1.76,1.87s-0.59,2.79-1.76,4.64
	c-1.17,1.85-2.59,3.46-4.24,4.84c-4.07,3.38-9.35,5.06-15.83,5.06c-6.11,0-10.83-1.75-14.18-5.26c-1.73-1.77-2.92-3.74-3.57-5.91
	c-0.66-2.18-0.98-5.2-0.98-9.06v-3.68l0.05-10.36V49.25c-0.48-0.03-0.83-0.05-1.04-0.05c-0.34,0-1.03,0.04-2.07,0.1
	c-0.86,0.07-1.59,0.1-2.17,0.1c-1.69,0-2.54-0.61-2.54-1.84c0-1.2,0.81-1.79,2.43-1.79c0.76,0,1.29,0.01,1.6,0.05l3.78,0.24l0-10.59
	C213.57,31.96,222.47,28.11,230.06,23.92z"/>
<path class="st0" d="M253.36,90.81c0.69,0,1.57,0.49,2.64,1.48c1.72,1.56,4.17,2.88,7.35,3.98s6.14,1.66,8.9,1.66
	c1.28,0,2.23-0.21,2.87-0.62c0.64-0.41,0.96-1.02,0.96-1.81s-0.44-1.74-1.32-2.85c-0.88-1.11-2.84-3.21-5.87-6.32
	c-7.41-7.53-12.22-12.83-14.41-15.9c-2.19-3.06-3.29-6-3.29-8.82c0-2.46,0.75-4.8,2.25-7.05c1.5-2.25,3.6-4.16,6.29-5.72
	c4.45-2.62,9.55-3.93,15.31-3.93c4.24,0,8.73,0.85,13.46,2.56c3.69,1.35,5.54,2.8,5.54,4.37c0,0.49-0.21,0.93-0.65,1.33
	c-0.43,0.4-0.92,0.59-1.47,0.59c-0.66,0-1.88-0.61-3.67-1.82c-3.66-2.49-7.64-3.74-11.96-3.74c-1.52,0-2.66,0.23-3.44,0.69
	c-0.78,0.46-1.16,1.16-1.16,2.11c0,1.11,0.72,2.52,2.15,4.22c1.43,1.7,4.34,4.59,8.72,8.65c4.28,3.96,6.99,6.56,8.15,7.79
	c1.15,1.23,2.27,2.65,3.34,4.26c1.83,2.75,2.74,5.73,2.74,8.94c0,5.05-2.57,9.13-7.71,12.24c-4.21,2.59-9.39,3.88-15.53,3.88
	c-6.83,0-12.89-1.44-18.16-4.32c-1.55-0.88-2.61-1.61-3.18-2.16c-0.57-0.56-0.85-1.16-0.85-1.82
	C251.34,91.47,252.02,90.85,253.36,90.81z"/>
<path class="st0" d="M373.26,46.25l-0.16,38.62l0.16,15.04h-26.5v-6.93c-4.37,2.85-8.36,4.9-11.96,6.14
	c-3.6,1.24-7.37,1.87-11.29,1.87c-7.2,0-12.42-2.03-15.66-6.1c-1.21-1.5-2.04-3.22-2.51-5.13s-0.7-4.64-0.7-8.18l0.1-11.49
	l0.05-7.66l-0.26-16.17h26.5l-0.31,24.67l0.05,9.34l0.05,6.29c0,3.77,0.24,6.03,0.73,6.78c0.59,0.85,1.69,1.28,3.31,1.28
	c1.66,0,3.37-0.41,5.15-1.23c1.78-0.82,4.08-2.28,6.91-4.37l0.05-6.44l0.1-17.55l-0.31-17.24v-1.53H373.26z"/>
<path class="st0" d="M430.41,56.48l5.89,9.29l5.63,9.05c5.54,8.72,9.32,14.48,11.33,17.29c2.02,2.8,4.26,5.4,6.74,7.79h-30.78
	l-9.55-15.87c-3.51-5.93-6.2-10.22-8.05-12.87v2.26l0.05,8.84l0.1,15.33l0.05,2.31h-26.55l0.25-23.68l0.06-13.66l-0.25-36.34
	l-0.06-2.31h26.55l-0.2,41.2v2.66c9.61-8.22,16.24-13.61,19.89-16.17c4.75-3.4,8.9-5.11,12.46-5.11c2.65,0,3.98,0.91,3.98,2.75
	c0,0.66-0.24,1.2-0.72,1.65s-1.08,0.66-1.8,0.66c-0.41,0-0.89-0.08-1.44-0.24c-0.97-0.27-1.7-0.4-2.22-0.4
	c-1.44,0-2.97,0.4-4.59,1.2C435.54,52.91,433.29,54.37,430.41,56.48z"/>
<path class="st0" d="M484.47,44.92c5.55,0,10.81,1.46,15.78,4.37c4.59,2.69,8.09,6.35,10.5,11.01c2.14,4.09,3.21,8.43,3.21,13.02
	c0,3.14-0.63,6.31-1.89,9.48c-1.26,3.18-2.98,6-5.15,8.45c-3.03,3.37-6.75,5.91-11.13,7.61c-3.59,1.41-7.33,2.11-11.23,2.11
	c-6.52,0-12.39-1.83-17.6-5.5c-4.07-2.82-7.16-6.44-9.26-10.86c-1.76-3.74-2.64-7.68-2.64-11.84c0-8.12,3.1-14.87,9.31-20.24
	C470.22,47.56,476.92,45.02,484.47,44.92z M482.97,48.07l-0.15,49.58c1.07,0.07,1.81,0.1,2.22,0.1c4.79,0,9.38-1.28,13.76-3.84
	c4.21-2.49,7.37-5.81,9.47-9.94c1.66-3.28,2.48-6.89,2.48-10.82c0-7.9-3.07-14.31-9.21-19.23c-4.97-3.96-10.37-5.95-16.2-5.95
	C484.87,47.97,484.07,48,482.97,48.07z"/>
<path class="st0" d="M548.74,42.88v1.52l-0.1,8.15l-0.1,12.64l-0.16,19.22l0.21,10.81l0.1,4.7h-26.6l0.26-19.22l0.16-16.97
	l-0.1-8.93l-0.15-9.92l0.05-1.98H548.74z M535.34,24.6c9.11,0,13.66,2.4,13.66,7.2c0,2.34-1.2,4.15-3.6,5.46s-5.77,1.96-10.12,1.96
	c-8.66,0-12.99-2.47-12.99-7.42C522.3,27.07,526.64,24.67,535.34,24.6z"/>
</svg>
