<?xml version="1.0" encoding="UTF-8"?>
<svg width="26px" height="18px" viewBox="0 0 26 18" version="1.1" xmlns="http://www.w3.org/2000/svg" xmlns:xlink="http://www.w3.org/1999/xlink">
    <!-- Generator: Sketch 51.2 (57519) - http://www.bohemiancoding.com/sketch -->
    <title>icon_cc_jcb</title>
    <desc>Created with Sketch.</desc>
    <defs></defs>
    <g id="Page-1" stroke="none" stroke-width="1" fill="none" fill-rule="evenodd">
        <g id="icon_cc_jcb" fill-rule="nonzero">
            <rect id="Rectangle" stroke="#F1F1F1" stroke-width="0.5" fill="#FFFFFF" x="0.25" y="0.25" width="25.5" height="17.5" rx="2"></rect>
            <g id="未命名-2" transform="translate(4.000000, 2.300000)">
                <path d="M13.5473684,8.21052632 L14.8421053,8.21052632 C14.8815789,8.21052632 14.9684211,8.19473684 15,8.19473684 C15.2447368,8.14736842 15.4578947,7.92631579 15.4578947,7.61052632 C15.4578947,7.31052632 15.2447368,7.08947368 15,7.02631579 C14.9605263,7.01052632 14.8894737,7.01052632 14.8421053,7.01052632 L13.5473684,7.01052632 L13.5473684,8.21052632 Z" id="Shape" fill="#54B230"></path>
                <path d="M12.4421053,2.27368421 L12.4421053,4.61052632 L15.6157895,4.61052632 C15.6868421,4.61052632 15.7736842,4.61052632 15.8368421,4.62631579 C16.5552632,4.66578947 17.0842105,5.03684211 17.0842105,5.67631579 C17.0842105,6.18157895 16.7289474,6.61578947 16.0578947,6.70263158 C16.7842105,6.77368421 17.3447368,7.18421053 17.3447368,7.81578947 C17.3447368,8.49473684 16.7289474,8.93684211 15.9078947,8.93684211 L12.4263158,8.93684211 L12.4263158,13.5 L15.7263158,13.5 C16.9578947,13.5 17.9763158,12.4973684 17.9763158,11.25 L17.9763158,0.0236842105 L14.6921053,0.0236842105 C13.4605263,0.0236842105 12.4421053,1.02631579 12.4421053,2.27368421 Z" id="Shape" fill="#3BBC31"></path>
                <path d="M15.3,5.81842105 C15.3,5.51842105 15.0868421,5.32105263 14.8421053,5.28947368 C14.8184211,5.28947368 14.7552632,5.27368421 14.7157895,5.27368421 L13.5394737,5.27368421 L13.5394737,6.36315789 L14.7157895,6.36315789 C14.7552632,6.36315789 14.8263158,6.36315789 14.8421053,6.34736842 C15.0868421,6.30789474 15.3,6.11052632 15.3,5.81842105 Z" id="Shape" fill="#54B230"></path>
                <path d="M0.0157894737,2.27368421 L0.0157894737,7.81578947 C0.647368421,8.12368421 1.30263158,8.32105263 1.95789474,8.32105263 C2.73947368,8.32105263 3.15789474,7.85526316 3.15789474,7.20789474 L3.15789474,4.58684211 L5.08421053,4.58684211 L5.08421053,7.19210526 C5.08421053,8.20263158 4.45263158,9.03157895 2.31315789,9.03157895 C1.01842105,9.03157895 0,8.74736842 0,8.74736842 L0,13.4763158 L3.3,13.4763158 C4.53157895,13.4763158 5.55,12.4736842 5.55,11.2263158 L5.55,0.0236842105 L2.26578947,0.0236842105 C1.03421053,0.0236842105 0.0157894737,1.02631579 0.0157894737,2.27368421 Z" id="Shape" fill="#146FBA"></path>
                <path d="M6.22894737,2.27368421 L6.22894737,5.21052632 C6.79736842,4.72894737 7.78421053,4.42105263 9.37894737,4.49210526 C10.2315789,4.53157895 11.1473684,4.76052632 11.1473684,4.76052632 L11.1473684,5.70789474 C10.6894737,5.47105263 10.1447368,5.26578947 9.44210526,5.21052632 C8.23421053,5.12368421 7.5,5.71578947 7.5,6.75789474 C7.5,7.80789474 8.22631579,8.4 9.44210526,8.30526316 C10.1447368,8.25789474 10.6894737,8.03684211 11.1473684,7.80789474 L11.1473684,8.75526316 C11.1473684,8.75526316 10.2473684,8.99210526 9.37894737,9.02368421 C7.78421053,9.09473684 6.79736842,8.78684211 6.22894737,8.30526316 L6.22894737,13.4921053 L9.52894737,13.4921053 C10.7605263,13.4921053 11.7789474,12.4894737 11.7789474,11.2421053 L11.7789474,0.0236842105 L8.47894737,0.0236842105 C7.24736842,0.0236842105 6.22894737,1.02631579 6.22894737,2.27368421 Z" id="Shape" fill="#E10238"></path>
            </g>
        </g>
    </g>
</svg>